<?xml version="1.0" standalone="no"?>
<!DOCTYPE svg PUBLIC "-//W3C//DTD SVG 20010904//EN"
 "http://www.w3.org/TR/2001/REC-SVG-20010904/DTD/svg10.dtd">
<svg version="1.0" xmlns="http://www.w3.org/2000/svg"
 width="1329.000000pt" height="817.000000pt" viewBox="0 0 1329.000000 817.000000"
 preserveAspectRatio="xMidYMid meet">

<g transform="translate(0.000000,817.000000) scale(0.100000,-0.100000)"
fill="#000000" stroke="none">
<path d="M9720 7955 c0 -8 -7 -15 -15 -15 -10 0 -15 -10 -15 -30 0 -20 -5 -30
-15 -30 -13 0 -15 -25 -15 -165 0 -140 2 -165 15 -165 8 0 15 -7 15 -15 0 -8
7 -15 15 -15 8 0 15 -7 15 -15 0 -8 -7 -15 -15 -15 -8 0 -15 -9 -15 -20 0 -11
-7 -20 -15 -20 -10 0 -15 -10 -15 -29 0 -20 -6 -30 -20 -34 -15 -4 -20 -14
-20 -36 0 -21 -5 -31 -15 -31 -8 0 -15 -7 -15 -15 0 -8 7 -15 15 -15 8 0 15
-7 15 -15 0 -8 9 -15 20 -15 16 0 20 7 20 30 0 20 5 30 15 30 13 0 15 -11 13
-62 -3 -60 -4 -63 -29 -66 -20 -2 -28 2 -32 17 -4 16 -13 21 -36 21 -21 0 -31
5 -31 15 0 8 -7 15 -15 15 -8 0 -15 7 -15 15 0 8 7 15 15 15 8 0 15 7 15 15 0
8 7 15 15 15 8 0 15 9 15 20 0 11 -7 20 -15 20 -10 0 -15 10 -15 30 0 20 -5
30 -15 30 -8 0 -15 6 -15 14 0 7 -9 16 -20 19 -14 3 -20 14 -20 32 0 18 6 29
20 32 11 3 20 12 20 19 0 8 7 14 15 14 12 0 15 16 15 80 0 64 3 80 15 80 8 0
15 9 15 20 0 11 -7 20 -15 20 -8 0 -15 7 -15 15 0 8 -7 15 -15 15 -8 0 -15 7
-15 15 0 11 -12 15 -50 15 -38 0 -50 -4 -50 -15 0 -8 -7 -15 -15 -15 -8 0 -15
-6 -15 -14 0 -7 -9 -16 -21 -19 -12 -3 -19 -11 -17 -18 7 -22 29 -22 35 0 7
27 33 28 33 1 0 -11 7 -20 15 -20 8 0 15 -7 15 -15 0 -8 -7 -15 -15 -15 -8 0
-15 7 -15 15 0 8 -7 15 -15 15 -12 0 -15 -16 -15 -80 0 -64 3 -80 15 -80 8 0
15 -7 15 -15 0 -8 7 -15 15 -15 10 0 15 -11 15 -35 0 -24 -5 -35 -15 -35 -8 0
-15 -7 -15 -15 0 -8 -7 -15 -15 -15 -12 0 -15 -14 -15 -65 0 -51 3 -65 15 -65
8 0 15 -7 15 -15 0 -8 7 -15 15 -15 13 0 15 -28 15 -195 0 -167 -2 -195 -15
-195 -8 0 -15 -9 -15 -21 0 -18 5 -20 47 -17 36 2 49 7 51 21 2 12 -3 17 -17
17 -21 0 -21 3 -19 178 l3 177 33 3 c27 3 32 0 32 -17 0 -16 6 -21 29 -21 16
0 31 -6 35 -15 3 -9 18 -15 36 -15 l30 0 0 -210 c0 -180 2 -210 15 -210 13 0
15 -21 15 -130 0 -109 -2 -130 -15 -130 -8 0 -15 -9 -15 -20 0 -11 -7 -20 -15
-20 -10 0 -15 -10 -15 -30 l0 -30 95 0 95 0 2 178 3 177 48 3 47 3 0 -130 c0
-110 -2 -131 -15 -131 -8 0 -15 -9 -15 -20 0 -18 7 -20 66 -20 48 0 65 -3 62
-12 -3 -8 -28 -14 -66 -16 -51 -2 -62 0 -62 13 0 8 -9 15 -20 15 -16 0 -20 -7
-20 -30 l0 -30 100 0 100 0 0 180 c0 153 2 180 15 180 12 0 15 16 15 80 l0 80
35 0 35 0 0 80 c0 64 -3 80 -15 80 -12 0 -15 18 -15 100 0 82 3 100 15 100 12
0 15 14 15 65 0 51 -3 65 -15 65 -10 0 -15 10 -15 30 0 23 -4 30 -20 30 -13 0
-20 7 -20 20 0 11 -7 20 -15 20 -8 0 -15 7 -15 15 0 11 -12 15 -50 15 -38 0
-50 4 -50 15 0 8 -7 15 -15 15 -8 0 -15 -7 -15 -15 0 -10 -11 -15 -35 -15 -24
0 -35 -5 -35 -15 0 -12 -13 -15 -60 -15 -47 0 -60 3 -60 15 0 8 -9 15 -20 15
-11 0 -20 7 -20 15 0 8 -7 15 -15 15 -11 0 -15 12 -15 50 l0 50 35 0 c24 0 35
5 35 15 0 10 10 15 30 15 20 0 30 -5 30 -15 0 -11 12 -15 50 -15 l50 0 0 50 0
50 -50 0 c-38 0 -50 -4 -50 -15 0 -10 -10 -15 -29 -15 -16 0 -31 6 -35 15 -3
9 -18 15 -36 15 -20 0 -30 5 -30 15 0 13 23 15 145 15 138 0 145 -1 145 -20 0
-11 7 -20 15 -20 8 0 15 -7 15 -15 0 -8 7 -15 15 -15 8 0 15 -7 15 -15 0 -8
-7 -15 -15 -15 -8 0 -15 -7 -15 -15 0 -8 -7 -15 -15 -15 -11 0 -15 -12 -15
-50 0 -43 3 -50 20 -50 17 0 20 7 20 50 0 38 4 50 15 50 8 0 15 7 15 15 0 8 7
15 15 15 10 0 15 11 15 35 0 24 -5 35 -15 35 -8 0 -15 5 -15 10 0 6 7 10 15
10 8 0 15 -4 15 -10 0 -5 7 -10 15 -10 10 0 15 10 15 30 0 27 -3 30 -30 30
-28 0 -30 3 -30 35 0 24 -5 35 -15 35 -10 0 -15 10 -15 30 0 23 -4 30 -20 30
-11 0 -20 7 -20 15 0 13 -21 15 -130 15 -109 0 -130 -2 -130 -15z m260 -50 c0
-24 5 -35 15 -35 11 0 15 -12 15 -45 0 -44 -15 -63 -22 -27 -2 13 -13 17 -44
18 -39 0 -84 29 -84 54 0 6 -25 10 -55 10 -42 0 -55 -3 -55 -15 0 -8 -6 -15
-14 -15 -7 0 -16 -9 -19 -21 -7 -27 -27 -15 -27 15 0 15 7 26 20 29 15 4 20
14 20 36 l0 31 125 0 125 0 0 -35z m-130 -80 c0 -11 -12 -15 -45 -15 -33 0
-45 4 -45 15 0 11 12 15 45 15 33 0 45 -4 45 -15z m-320 -60 c0 -8 7 -15 15
-15 8 0 15 -9 15 -20 0 -11 -5 -20 -11 -20 -7 0 -17 -7 -24 -17 -7 -9 -17 -13
-23 -9 -18 11 -14 23 8 29 11 3 20 12 20 21 0 13 -11 16 -50 16 -38 0 -50 4
-50 15 0 11 12 15 50 15 38 0 50 -4 50 -15z m-70 -165 c0 -38 -4 -50 -15 -50
-11 0 -15 12 -15 50 0 38 4 50 15 50 11 0 15 -12 15 -50z m70 -1 c0 -43 -3
-50 -17 -47 -12 2 -19 14 -21 37 -4 41 3 61 23 61 11 0 15 -12 15 -51z m550
-129 c0 -11 7 -20 15 -20 10 0 15 -10 15 -30 0 -23 4 -30 20 -30 22 0 25 -15
14 -69 -11 -52 -34 -39 -34 19 0 38 -4 50 -15 50 -10 0 -15 10 -15 30 0 20 -5
30 -15 30 -8 0 -15 9 -15 20 0 11 7 20 15 20 8 0 15 -9 15 -20z m-330 -5 c0
-8 9 -15 20 -15 11 0 20 -7 20 -15 0 -11 12 -15 50 -15 38 0 50 4 50 15 0 10
10 15 30 15 20 0 30 5 30 15 0 10 10 15 29 15 16 0 31 -6 35 -15 3 -8 12 -15
21 -15 10 0 15 -10 15 -30 0 -20 5 -30 15 -30 11 0 15 -12 15 -50 0 -38 -4
-50 -15 -50 -8 0 -15 7 -15 15 0 8 -9 15 -20 15 -19 0 -20 -7 -20 -145 l0
-145 -145 0 -145 0 0 180 c0 153 -2 180 -15 180 -10 0 -15 10 -15 30 0 20 5
30 15 30 9 0 18 7 21 15 4 8 10 15 15 15 5 0 9 -7 9 -15z m-260 -59 c0 -7 9
-16 20 -19 16 -4 20 -14 20 -51 l0 -46 -50 0 -50 0 0 65 0 65 30 0 c19 0 30
-5 30 -14z m200 -36 c0 -5 -7 -10 -15 -10 -8 0 -15 5 -15 10 0 6 7 10 15 10 8
0 15 -4 15 -10z m420 -204 c0 -76 -3 -95 -16 -100 -41 -16 -44 -10 -44 94 l0
100 30 0 30 0 0 -94z m30 -186 l0 -50 -60 0 -60 0 0 35 c0 24 5 35 15 35 8 0
15 7 15 15 0 11 12 15 45 15 l45 0 0 -50z m-160 -15 c0 -24 5 -35 15 -35 8 0
15 -7 15 -15 0 -10 11 -15 35 -15 l35 0 0 -65 0 -65 -95 0 -94 0 -3 83 c-2 65
-6 82 -18 82 -12 0 -16 -17 -18 -83 l-3 -83 -62 3 -62 3 -3 99 c-1 55 0 106 2
113 4 10 36 13 131 13 l125 0 0 -35z m-182 -231 c20 -6 22 -12 22 -80 l0 -74
-30 0 -30 0 0 80 c0 44 3 80 8 80 4 0 17 -3 30 -6z m238 -4 c11 0 14 -17 14
-75 l0 -75 -35 0 -35 0 0 73 c0 77 5 91 28 82 7 -3 20 -5 28 -5z m-216 -220
c0 -28 -3 -30 -35 -30 -37 0 -38 2 -29 38 5 16 14 22 35 22 26 0 29 -4 29 -30z
m230 0 c0 -28 -3 -30 -35 -30 -32 0 -35 2 -35 30 0 28 3 30 35 30 32 0 35 -2
35 -30z m-230 -85 c0 -12 -14 -15 -65 -15 -51 0 -65 3 -65 15 0 12 14 15 65
15 51 0 65 -3 65 -15z"/>
<path d="M9757 7583 c-4 -3 -7 -12 -7 -20 0 -9 15 -13 50 -13 43 0 50 3 50 20
0 17 -7 20 -43 20 -24 0 -47 -3 -50 -7z"/>
<path d="M3490 6706 c0 -7 -9 -16 -20 -19 -14 -3 -20 -14 -20 -32 0 -18 6 -29
20 -32 11 -3 20 -12 20 -19 0 -9 11 -14 30 -14 20 0 30 -5 30 -15 0 -12 15
-15 73 -15 109 0 117 -4 117 -56 0 -37 3 -44 20 -44 13 0 20 -7 20 -20 0 -11
7 -20 15 -20 9 0 15 -9 15 -25 0 -16 -6 -25 -15 -25 -11 0 -15 -12 -15 -50 0
-49 0 -50 -31 -50 -22 0 -32 -5 -36 -20 -4 -14 -14 -20 -34 -20 -19 0 -29 -5
-29 -15 0 -11 -12 -15 -50 -15 -38 0 -50 4 -50 15 0 8 -7 15 -15 15 -8 0 -15
9 -15 20 0 11 -7 20 -15 20 -11 0 -15 12 -15 45 0 43 1 45 30 45 20 0 30 5 30
15 0 10 10 15 30 15 20 0 30 -5 30 -15 0 -12 13 -15 55 -15 l55 0 0 50 0 50
-50 0 c-36 0 -52 -4 -56 -15 -4 -9 -19 -15 -35 -15 -19 0 -29 5 -29 15 0 10
-10 15 -30 15 l-30 0 0 66 c0 57 -2 65 -17 62 -16 -3 -18 -20 -21 -161 -2
-152 -2 -159 18 -164 11 -3 20 -12 20 -19 0 -8 7 -14 15 -14 8 0 15 -7 15 -15
0 -8 -7 -15 -15 -15 -8 0 -15 -6 -15 -14 0 -7 -9 -16 -20 -19 -14 -3 -20 -14
-20 -32 0 -18 6 -29 20 -32 11 -3 20 -12 20 -19 0 -19 -29 -18 -36 1 -11 27
-34 17 -34 -15 0 -20 -5 -30 -15 -30 -8 0 -15 7 -15 15 0 8 -7 15 -15 15 -10
0 -15 11 -15 35 0 23 -5 35 -14 35 -8 0 -16 7 -20 15 -3 8 -12 15 -21 15 -10
0 -15 10 -15 30 0 23 4 30 20 30 11 0 20 7 20 15 0 8 7 15 15 15 10 0 15 11
15 35 0 24 5 35 15 35 12 0 15 14 15 65 0 51 -3 65 -15 65 -8 0 -15 7 -15 15
0 8 -6 15 -14 15 -7 0 -16 9 -19 20 -4 16 -14 20 -50 20 -36 0 -46 -4 -50 -20
-3 -11 -12 -20 -21 -20 -9 0 -16 -7 -16 -15 0 -8 -7 -15 -15 -15 -12 0 -15
-14 -15 -65 0 -51 3 -65 15 -65 10 0 15 -10 15 -31 0 -22 5 -32 20 -36 11 -3
20 -12 20 -19 0 -8 7 -14 15 -14 10 0 15 -10 15 -30 0 -20 -5 -30 -15 -30 -8
0 -15 -6 -15 -14 0 -7 -9 -16 -20 -19 -17 -4 -20 -14 -20 -71 0 -50 3 -66 14
-66 8 0 16 -7 20 -15 3 -8 12 -15 21 -15 13 0 15 -27 15 -195 0 -188 -1 -195
-20 -195 -11 0 -20 -7 -20 -15 0 -12 13 -15 55 -15 42 0 55 3 55 15 0 8 -7 15
-15 15 -13 0 -15 27 -15 180 l0 180 24 0 c16 0 26 -7 29 -21 5 -17 11 -20 35
-14 24 5 30 2 35 -14 4 -16 13 -21 36 -21 l31 0 0 -210 c0 -180 2 -210 15
-210 13 0 15 -21 15 -130 0 -109 -2 -130 -15 -130 -8 0 -15 -6 -15 -14 0 -7
-9 -16 -21 -19 -16 -4 -20 -12 -17 -34 l3 -28 98 -3 97 -3 0 181 0 180 50 0
50 0 0 -130 c0 -109 -2 -130 -15 -130 -8 0 -15 -7 -15 -15 0 -12 13 -15 60
-15 47 0 60 -3 60 -15 0 -12 -13 -15 -60 -15 -47 0 -60 3 -60 15 0 8 -9 15
-20 15 -16 0 -20 -7 -20 -35 l0 -35 100 0 100 0 0 180 c0 153 2 180 15 180 12
0 15 16 15 80 l0 80 65 0 c58 0 65 2 65 20 0 11 7 20 15 20 12 0 15 17 15 95
0 78 -3 95 -15 95 -8 0 -15 7 -15 14 0 11 -14 16 -47 18 l-48 3 -3 46 c-3 40
0 47 18 52 17 4 20 13 20 66 0 54 -2 61 -20 61 -16 0 -20 7 -20 35 0 24 -5 35
-15 35 -8 0 -15 7 -15 15 0 8 -7 15 -15 15 -8 0 -15 7 -15 15 0 11 -12 15 -50
15 -38 0 -50 4 -50 15 0 8 7 15 15 15 11 0 15 12 15 49 0 40 3 50 20 54 19 5
20 14 20 131 0 119 -1 126 -20 126 -13 0 -20 7 -20 20 0 11 -7 20 -15 20 -8 0
-15 7 -15 15 0 12 -19 15 -115 15 -96 0 -115 3 -115 15 0 10 -10 15 -30 15
-19 0 -30 -5 -30 -14z m-170 -231 c0 -8 9 -15 20 -15 11 0 20 -7 20 -15 0 -8
-9 -15 -20 -15 -11 0 -20 -7 -20 -15 0 -8 -7 -15 -15 -15 -8 0 -15 5 -15 10 0
6 7 13 15 16 27 11 17 34 -15 34 -20 0 -30 5 -30 15 0 10 10 15 30 15 20 0 30
-5 30 -15z m-90 -30 c0 -8 7 -15 15 -15 8 0 15 -7 15 -15 0 -8 -7 -15 -15 -15
-8 0 -15 7 -15 15 0 8 -9 15 -20 15 -11 0 -20 7 -20 15 0 8 9 15 20 15 11 0
20 -7 20 -15z m-2 -67 c-6 -18 -28 -21 -28 -4 0 9 7 16 16 16 9 0 14 -5 12
-12z m130 0 c-6 -18 -28 -21 -28 -4 0 9 7 16 16 16 9 0 14 -5 12 -12z m-98
-68 c0 -38 -4 -50 -15 -50 -11 0 -15 12 -15 50 0 38 4 50 15 50 11 0 15 -12
15 -50z m60 -1 c0 -66 -24 -62 -28 4 -2 37 0 47 12 47 12 0 16 -12 16 -51z
m230 -123 c0 -7 9 -16 20 -19 11 -3 20 -12 20 -21 0 -12 10 -16 44 -16 35 0
45 4 49 20 4 15 14 20 36 20 21 0 31 5 31 15 0 10 10 15 30 15 19 0 30 -5 30
-14 0 -7 9 -16 20 -19 15 -4 20 -14 20 -36 0 -21 5 -31 16 -31 12 0 14 -10 12
-47 -3 -49 -22 -68 -31 -32 -3 12 -12 19 -19 17 -9 -3 -14 -30 -16 -86 l-3
-82 -29 0 -29 0 -3 83 -3 82 -44 0 c-53 0 -68 -22 -19 -27 22 -2 34 -9 36 -20
3 -15 -4 -18 -32 -18 -25 0 -36 -4 -36 -15 0 -10 11 -15 35 -15 24 0 35 -5 35
-15 0 -11 -11 -15 -36 -15 -28 0 -35 -3 -32 -17 2 -12 14 -19 36 -21 20 -2 32
-9 32 -18 0 -10 13 -14 45 -14 l45 0 0 -44 c0 -30 -5 -46 -15 -50 -10 -4 -15
-20 -15 -51 0 -43 -1 -45 -30 -45 l-30 0 0 95 c0 88 -1 95 -20 95 -17 0 -20
-7 -20 -50 l0 -50 -80 0 -80 0 0 64 0 65 48 3 47 3 0 80 0 80 -47 3 c-46 3
-48 5 -48 33 0 19 -5 29 -15 29 -10 0 -15 11 -15 35 0 24 5 35 15 35 8 0 15 7
15 15 0 8 7 15 15 15 8 0 15 -6 15 -14z m-260 -71 c0 -8 7 -15 15 -15 11 0 15
-12 15 -45 l0 -45 -45 0 -45 0 0 60 0 60 30 0 c20 0 30 -5 30 -15z m100 -100
c0 -8 7 -15 15 -15 8 0 15 -7 15 -15 0 -8 9 -15 20 -15 16 0 20 7 20 30 0 17
5 30 10 30 6 0 10 -27 10 -60 0 -57 -1 -60 -25 -60 -16 0 -25 6 -25 15 0 10
-11 15 -35 15 -25 0 -35 4 -35 15 0 9 -7 18 -15 21 -8 4 -15 10 -15 15 0 5 7
9 15 9 8 0 15 7 15 15 0 8 7 15 15 15 8 0 15 -7 15 -15z m198 -27 c3 -15 -4
-18 -32 -18 -34 0 -47 15 -29 34 13 13 58 1 61 -16z m322 -113 l0 -95 -30 0
-30 0 0 95 0 95 30 0 30 0 0 -95z m-320 50 c0 -10 -11 -15 -35 -15 -24 0 -35
5 -35 15 0 10 11 15 35 15 24 0 35 -5 35 -15z m450 -180 l0 -95 -30 0 -30 0 0
65 c0 58 -2 65 -20 65 -16 0 -20 7 -20 30 0 29 1 30 50 30 l50 0 0 -95z m-100
-50 l0 -45 -60 0 -60 0 0 30 c0 20 5 30 15 30 8 0 15 7 15 15 0 11 12 15 45
15 l45 0 0 -45z m-260 -15 c0 -20 -5 -30 -15 -30 -12 0 -15 -16 -15 -85 l0
-85 -65 0 -65 0 0 115 0 115 80 0 80 0 0 -30z m37 -50 c5 -18 14 -20 85 -20
l79 0 -3 -62 -3 -63 -95 0 -95 0 -3 83 c-2 70 -1 82 14 82 9 0 18 -9 21 -20z
m-107 -260 l0 -80 -30 0 -30 0 0 73 c0 41 3 77 7 80 3 4 17 7 30 7 22 0 23 -3
23 -80z m230 0 l0 -80 -30 0 -30 0 0 80 0 80 30 0 30 0 0 -80z m-234 -120 c9
0 14 -11 14 -30 0 -28 -3 -30 -35 -30 -32 0 -35 3 -35 28 0 33 8 45 28 37 7
-3 20 -5 28 -5z m225 0 c5 0 9 -13 9 -30 0 -27 -3 -30 -30 -30 -26 0 -30 4
-30 28 0 33 8 45 28 37 7 -3 18 -5 23 -5z m-213 -107 c3 -10 -14 -13 -62 -13
-53 0 -66 3 -66 15 0 13 11 15 62 13 38 -2 63 -8 66 -15z"/>
<path d="M3550 6280 c0 -17 7 -20 50 -20 43 0 50 3 50 20 0 17 -7 20 -50 20
-43 0 -50 -3 -50 -20z"/>
<path d="M1170 4880 c0 -11 -7 -20 -15 -20 -10 0 -15 -10 -15 -30 0 -20 5 -30
15 -30 8 0 15 -7 15 -15 0 -8 -7 -15 -15 -15 -13 0 -15 -27 -15 -180 0 -153 2
-180 15 -180 10 0 15 -11 15 -35 0 -24 -5 -35 -15 -35 -10 0 -15 -10 -15 -30
0 -20 -5 -30 -15 -30 -10 0 -15 -11 -15 -35 0 -39 -24 -50 -33 -15 -3 11 -12
20 -21 20 -11 0 -16 9 -16 30 0 20 -5 30 -15 30 -8 0 -15 7 -15 15 0 8 -7 15
-15 15 -10 0 -15 11 -15 35 0 24 5 35 15 35 8 0 15 7 15 15 0 8 7 15 15 15 10
0 15 10 15 31 0 22 5 32 20 36 17 5 20 14 20 65 0 51 -3 61 -20 65 -11 3 -20
12 -20 19 0 8 -7 14 -15 14 -8 0 -15 7 -15 15 0 11 -12 15 -50 15 -38 0 -50
-4 -50 -15 0 -8 -7 -15 -15 -15 -8 0 -15 -7 -15 -15 0 -8 -7 -15 -15 -15 -12
0 -15 -14 -15 -64 0 -48 4 -65 15 -70 9 -3 15 -18 15 -36 0 -20 5 -30 15 -30
8 0 15 -7 15 -15 0 -8 7 -15 15 -15 10 0 15 -11 15 -35 0 -24 -5 -35 -15 -35
-8 0 -15 -7 -15 -15 0 -8 -7 -15 -15 -15 -12 0 -15 -14 -15 -65 0 -51 3 -65
15 -65 8 0 15 -7 15 -15 0 -10 11 -15 35 -15 24 0 35 -5 35 -15 0 -10 10 -15
30 -15 23 0 30 -4 30 -20 0 -16 7 -20 35 -20 24 0 35 -5 35 -15 0 -10 10 -15
30 -15 l30 0 0 -65 0 -65 -65 0 c-51 0 -65 -3 -65 -15 0 -8 -7 -15 -15 -15 -8
0 -15 -9 -15 -20 0 -11 7 -20 15 -20 8 0 15 -7 15 -15 0 -12 14 -15 65 -15
l65 0 0 -95 c0 -78 3 -95 15 -95 13 0 15 -21 15 -130 0 -109 -2 -130 -15 -130
-8 0 -15 -9 -15 -20 0 -11 -7 -20 -15 -20 -10 0 -15 -10 -15 -30 l0 -30 95 0
95 0 2 178 3 177 48 3 47 3 0 -130 c0 -110 -2 -131 -15 -131 -8 0 -15 -9 -15
-20 0 -11 -7 -20 -15 -20 -10 0 -15 -10 -15 -30 l0 -30 95 0 95 0 0 175 c0
142 3 176 15 182 10 6 15 31 17 83 l3 75 33 3 c20 2 32 9 32 18 0 9 10 14 28
14 15 0 37 10 50 24 26 28 29 46 7 46 -8 0 -15 7 -15 15 0 10 -11 15 -35 15
-24 0 -35 5 -35 15 0 8 -7 15 -15 15 -12 0 -15 18 -15 100 0 82 3 100 15 100
12 0 15 14 15 65 0 51 -3 65 -15 65 -10 0 -15 10 -15 30 0 23 -4 30 -20 30
-13 0 -20 7 -20 20 0 11 -7 20 -15 20 -8 0 -15 7 -15 15 0 11 -12 15 -45 15
-33 0 -45 4 -45 15 0 8 7 15 15 15 12 0 15 14 15 65 0 51 3 65 15 65 12 0 15
19 15 115 0 96 -3 115 -15 115 -8 0 -15 7 -15 15 0 8 -9 15 -20 15 -11 0 -20
-7 -20 -15 0 -8 9 -15 20 -15 18 0 20 -7 20 -80 0 -64 -3 -80 -15 -80 -12 0
-15 13 -15 61 0 52 -3 62 -20 66 -11 3 -20 12 -20 19 0 11 -26 14 -130 14
l-130 0 0 30 c0 29 1 30 50 30 38 0 50 -4 50 -15 0 -13 15 -15 97 -13 66 2 98
7 101 16 3 9 -21 12 -97 12 -94 0 -101 1 -101 20 0 17 -7 20 -50 20 -43 0 -50
-3 -50 -20z m208 -116 l52 -7 0 -59 c0 -43 4 -60 15 -64 8 -4 15 -12 15 -20 0
-8 9 -14 20 -14 11 0 20 -5 20 -11 0 -6 -9 -13 -20 -16 -11 -3 -20 -12 -20
-19 0 -8 -7 -14 -15 -14 -8 0 -15 -7 -15 -15 0 -8 -7 -15 -15 -15 -8 0 -15 -7
-15 -15 0 -8 -7 -15 -15 -15 -8 0 -15 7 -15 15 0 12 -16 15 -80 15 -62 0 -82
-3 -86 -15 -4 -8 -12 -15 -20 -15 -10 0 -14 13 -14 45 0 45 0 45 35 45 24 0
35 5 35 15 0 10 10 15 30 15 20 0 30 -5 30 -15 0 -11 12 -15 50 -15 l50 0 0
50 0 50 -50 0 c-38 0 -50 -4 -50 -15 0 -10 -10 -15 -30 -15 -20 0 -30 5 -30
15 0 10 -11 15 -35 15 -35 0 -35 0 -35 43 0 24 3 47 7 50 8 9 131 9 201 1z
m-368 -109 c0 -8 7 -15 15 -15 8 0 15 -9 15 -20 0 -11 -7 -20 -15 -20 -8 0
-15 -7 -15 -15 0 -8 7 -15 15 -15 8 0 15 -7 15 -15 0 -8 -7 -15 -15 -15 -11 0
-15 -12 -15 -50 0 -38 -4 -50 -15 -50 -11 0 -15 12 -15 50 0 38 4 50 15 50 8
0 15 7 15 15 0 8 -7 15 -15 15 -8 0 -15 7 -15 15 0 8 7 15 15 15 8 0 15 9 15
20 0 16 -7 20 -35 20 -33 0 -43 8 -28 23 13 14 63 7 63 -8z m-100 -35 c0 -11
7 -20 15 -20 8 0 15 -7 15 -15 0 -8 -7 -15 -15 -15 -8 0 -15 -7 -15 -15 0 -8
7 -15 15 -15 11 0 15 -12 15 -50 0 -38 -4 -50 -15 -50 -11 0 -15 12 -15 50 0
38 -4 50 -15 50 -8 0 -15 7 -15 15 0 8 7 15 15 15 8 0 15 7 15 15 0 8 -7 15
-15 15 -8 0 -15 9 -15 20 0 11 7 20 15 20 8 0 15 -9 15 -20z m550 -145 c0 -24
-5 -35 -15 -35 -10 0 -15 -10 -15 -30 0 -27 3 -30 31 -30 22 0 32 -5 36 -20 3
-11 12 -20 19 -20 9 0 14 -11 14 -30 0 -20 5 -30 15 -30 11 0 15 -12 15 -50 0
-38 -4 -50 -15 -50 -8 0 -15 7 -15 15 0 8 -7 15 -15 15 -13 0 -15 -23 -15
-145 l0 -145 -145 0 -145 0 -2 177 c-3 160 -5 178 -20 181 -11 2 -18 -3 -18
-12 0 -9 -7 -16 -15 -16 -8 0 -15 7 -15 15 0 8 7 15 15 15 10 0 15 10 15 30 0
21 5 30 16 30 9 0 18 9 21 20 3 11 10 20 15 20 5 0 12 -9 15 -20 3 -11 12 -20
19 -20 8 0 14 -7 14 -15 0 -11 12 -15 50 -15 38 0 50 4 50 15 0 10 10 15 30
15 23 0 30 4 30 20 0 17 -7 20 -46 20 -37 0 -47 -4 -51 -20 -3 -11 -10 -20
-15 -20 -5 0 -12 9 -15 20 -4 14 -14 20 -34 20 -19 0 -29 5 -29 15 0 10 -11
15 -35 15 -24 0 -35 5 -35 15 0 10 11 15 35 15 24 0 35 5 35 15 0 11 12 15 45
15 33 0 45 -4 45 -15 0 -11 -12 -15 -45 -15 -33 0 -45 -4 -45 -15 0 -11 12
-15 45 -15 31 0 47 5 51 15 4 9 19 15 35 15 19 0 29 5 29 15 0 8 7 15 15 15 8
0 15 9 15 20 0 11 7 20 15 20 10 0 15 -11 15 -35z m100 -115 c0 -11 7 -20 15
-20 10 0 15 -10 15 -30 0 -20 -5 -30 -15 -30 -10 0 -15 10 -15 30 0 20 -5 30
-15 30 -8 0 -15 9 -15 20 0 11 7 20 15 20 8 0 15 -9 15 -20z m-580 -64 c0 -8
7 -16 15 -20 10 -4 15 -20 15 -51 0 -33 4 -45 15 -45 8 0 15 7 15 15 0 8 7 15
15 15 8 0 15 -7 15 -15 0 -8 9 -15 20 -15 11 0 20 -7 20 -15 0 -8 7 -15 15
-15 10 0 15 10 15 30 0 20 5 30 15 30 12 0 15 -14 15 -65 l0 -65 -30 0 c-23 0
-30 4 -30 20 0 16 -7 20 -35 20 -24 0 -35 5 -35 15 0 8 -7 15 -15 15 -8 0 -15
7 -15 15 0 11 -12 15 -44 15 -37 0 -45 4 -50 23 -8 30 -8 92 1 100 12 13 63 7
63 -7z m650 -66 c0 -36 -4 -50 -14 -50 -9 0 -15 15 -18 43 -6 48 -3 57 18 57
10 0 14 -13 14 -50z m-40 -174 c0 -76 -3 -95 -16 -100 -41 -16 -44 -10 -44 94
l0 100 30 0 30 0 0 -94z m38 -183 l3 -43 -65 0 -66 0 0 30 c0 20 5 30 15 30 8
0 15 7 15 16 0 12 10 14 48 12 l47 -3 3 -42z m-168 2 c0 -13 -30 -15 -210 -15
-192 0 -223 4 -203 23 3 4 98 7 210 7 174 0 203 -2 203 -15z m260 -5 c0 -5
-11 -10 -25 -10 -14 0 -25 5 -25 10 0 6 11 10 25 10 14 0 25 -4 25 -10z m-390
-130 l0 -80 -60 0 -60 0 0 80 0 80 60 0 60 0 0 -80z m170 65 c0 -10 10 -15 30
-15 l30 0 0 -65 0 -65 -95 0 -95 0 0 80 0 80 65 0 c51 0 65 -3 65 -15z m-222
-181 c20 -6 22 -12 22 -80 l0 -74 -30 0 -30 0 0 80 c0 44 3 80 8 80 4 0 17 -3
30 -6z m230 0 c20 -6 22 -12 22 -80 l0 -74 -30 0 -30 0 0 80 c0 44 3 80 8 80
4 0 17 -3 30 -6z m-208 -224 c0 -27 -3 -30 -30 -30 -27 0 -30 3 -30 30 0 27 3
30 30 30 27 0 30 -3 30 -30z m230 0 c0 -28 -3 -30 -36 -30 -29 0 -35 3 -30 16
3 9 6 22 6 30 0 9 11 14 30 14 27 0 30 -3 30 -30z m-232 -82 c-3 -8 -28 -14
-66 -16 -51 -2 -62 0 -62 13 0 12 13 15 66 15 48 0 65 -3 62 -12z m232 -3 c0
-12 -14 -15 -65 -15 -51 0 -65 3 -65 15 0 12 14 15 65 15 51 0 65 -3 65 -15z"/>
<path d="M7390 4850 c0 -11 -7 -20 -15 -20 -8 0 -15 -7 -15 -15 0 -8 -7 -15
-15 -15 -8 0 -15 -7 -15 -15 0 -8 -7 -15 -15 -15 -10 0 -15 -11 -15 -35 0 -28
-4 -35 -20 -35 -18 0 -20 -7 -20 -65 0 -58 2 -65 20 -65 11 0 20 7 20 15 0 8
7 15 15 15 8 0 15 -5 15 -10 0 -6 -7 -13 -15 -16 -8 -4 -15 -12 -15 -20 0 -8
-5 -14 -11 -14 -6 0 -22 -10 -35 -22 -28 -28 -35 -108 -9 -108 8 0 15 -6 15
-14 0 -7 9 -16 20 -19 11 -3 20 -10 20 -17 0 -7 -9 -14 -20 -17 -14 -4 -20
-14 -20 -34 0 -19 -5 -29 -15 -29 -10 0 -15 -11 -15 -35 0 -24 -5 -35 -15 -35
-8 0 -15 7 -15 15 0 8 -7 15 -15 15 -10 0 -15 11 -15 35 0 28 -4 35 -20 35
-11 0 -20 7 -20 15 0 8 -7 15 -15 15 -10 0 -15 11 -15 35 0 24 5 35 15 35 8 0
15 7 15 15 0 8 -7 15 -15 15 -11 0 -15 12 -15 45 0 31 5 47 15 51 8 4 15 12
15 20 0 8 -7 14 -15 14 -8 0 -15 7 -15 15 0 8 7 15 15 15 8 0 15 9 15 20 0 16
-7 20 -30 20 -20 0 -30 5 -30 15 0 10 10 15 30 15 19 0 30 -5 30 -14 0 -7 9
-16 20 -19 11 -3 20 -10 20 -17 0 -7 -9 -14 -20 -17 -23 -6 -27 -33 -5 -33 8
0 15 -7 15 -15 0 -8 -7 -15 -15 -15 -11 0 -15 -12 -15 -50 0 -43 3 -50 20 -50
16 0 20 7 20 35 0 24 5 35 15 35 12 0 15 13 15 58 0 47 -5 61 -24 80 -13 12
-29 22 -35 22 -6 0 -11 7 -11 15 0 11 -12 15 -45 15 -33 0 -45 -4 -45 -15 0
-8 -9 -15 -20 -15 -11 0 -20 -7 -20 -15 0 -8 -7 -15 -15 -15 -12 0 -15 -14
-15 -65 0 -51 3 -65 15 -65 10 0 15 -11 15 -35 0 -28 4 -35 20 -35 17 0 20 7
20 51 0 66 24 62 28 -4 2 -37 0 -47 -12 -47 -9 0 -16 -7 -16 -15 0 -8 7 -15
15 -15 10 0 15 -11 15 -35 0 -24 -5 -35 -15 -35 -8 0 -15 -7 -15 -15 0 -8 -9
-15 -20 -15 -18 0 -20 -7 -20 -65 0 -58 2 -65 20 -65 11 0 20 -7 20 -15 0 -8
7 -15 15 -15 13 0 15 -28 15 -195 0 -167 -2 -195 -15 -195 -8 0 -15 -9 -15
-20 0 -17 7 -20 45 -20 38 0 45 3 45 20 0 11 -7 20 -15 20 -13 0 -15 26 -15
175 l0 175 35 0 c24 0 35 -5 35 -15 0 -10 10 -15 30 -15 19 0 30 -5 30 -14 0
-9 12 -16 33 -18 l32 -3 3 -322 c2 -278 4 -323 17 -323 8 0 15 -7 15 -15 0 -8
-6 -15 -14 -15 -7 0 -16 -9 -19 -20 -3 -11 -12 -20 -21 -20 -11 0 -16 -9 -16
-30 l0 -30 100 0 100 0 0 65 c0 51 3 65 15 65 8 0 15 -7 15 -15 0 -8 7 -15 15
-15 8 0 15 -9 15 -20 0 -11 -7 -20 -15 -20 -10 0 -15 -10 -15 -30 l0 -30 100
0 100 0 0 260 0 260 45 0 c33 0 45 4 45 15 0 8 9 15 20 15 18 0 20 -7 20 -65
0 -58 -2 -65 -20 -65 -16 0 -20 -7 -20 -30 0 -20 -5 -30 -15 -30 -11 0 -15
-12 -15 -50 0 -38 4 -50 15 -50 8 0 15 -7 15 -15 0 -8 9 -15 20 -15 13 0 20
-7 20 -20 0 -11 7 -20 15 -20 11 0 15 -12 15 -45 0 -33 4 -45 15 -45 8 0 15
-9 15 -20 0 -11 6 -20 14 -20 8 0 16 -7 20 -15 3 -8 12 -15 21 -15 8 0 15 -7
15 -15 0 -8 7 -15 15 -15 8 0 15 7 15 15 0 11 12 15 50 15 38 0 50 -4 50 -15
0 -8 7 -15 15 -15 8 0 15 7 15 15 0 8 7 15 15 15 8 0 15 7 15 15 0 8 6 15 14
15 7 0 16 9 19 20 4 15 14 20 36 20 21 0 31 5 31 15 0 8 7 15 15 15 8 0 15 7
15 15 0 8 -7 15 -15 15 -8 0 -15 -7 -15 -15 0 -10 -11 -15 -35 -15 -32 0 -35
2 -35 30 0 20 -5 30 -15 30 -8 0 -15 9 -15 20 0 18 -7 20 -80 20 -64 0 -80 3
-80 15 0 8 -7 15 -15 15 -8 0 -15 -7 -15 -15 0 -8 -7 -15 -16 -15 -9 0 -18 -9
-21 -20 -3 -11 -10 -20 -15 -20 -5 0 -12 9 -15 20 -4 14 -14 20 -34 20 -19 0
-29 5 -29 15 0 8 -9 15 -20 15 -17 0 -20 7 -20 50 0 43 3 50 20 50 16 0 20 7
20 30 0 20 5 30 15 30 12 0 15 14 15 65 0 51 -3 65 -15 65 -8 0 -15 6 -15 14
0 7 -9 16 -20 19 -16 4 -20 14 -20 51 0 33 -4 46 -14 46 -12 0 -13 31 -9 196
6 194 6 195 -15 201 -29 7 -30 49 -2 56 19 5 20 14 20 182 0 168 -1 177 -20
182 -11 3 -20 12 -20 19 0 8 -7 14 -15 14 -8 0 -15 7 -15 15 0 10 -10 15 -31
15 -22 0 -32 5 -36 20 -5 19 -14 20 -119 20 -107 0 -114 -1 -114 -20z m40 -35
c0 -8 7 -15 15 -15 8 0 15 7 15 15 0 10 10 15 30 15 20 0 30 -5 30 -15 0 -8 9
-15 20 -15 11 0 20 7 20 15 0 10 10 15 30 15 20 0 30 -5 30 -15 0 -10 11 -15
35 -15 23 0 35 -5 35 -14 0 -8 7 -16 15 -20 12 -4 15 -29 15 -131 0 -104 -2
-125 -15 -125 -8 0 -15 -9 -15 -20 0 -13 -7 -20 -20 -20 -11 0 -20 -7 -20 -15
0 -8 -7 -15 -15 -15 -8 0 -15 -7 -15 -15 0 -10 -10 -15 -30 -15 -20 0 -30 -5
-30 -15 0 -11 -12 -15 -50 -15 -43 0 -50 -3 -50 -20 0 -11 -7 -20 -15 -20 -10
0 -15 11 -15 35 0 35 0 35 45 35 43 0 45 1 45 30 0 28 3 30 35 30 28 0 35 4
35 20 0 18 -7 20 -80 20 -67 0 -80 3 -80 16 0 15 10 16 78 10 42 -4 79 -11 80
-17 2 -5 17 -9 33 -9 28 0 29 2 29 45 0 33 -4 45 -15 45 -8 0 -15 9 -15 20 0
11 7 20 15 20 8 0 15 7 15 15 0 8 -7 15 -15 15 -8 0 -15 -7 -15 -15 0 -12 -14
-15 -65 -15 l-65 0 0 45 c0 33 4 45 15 45 10 0 15 11 15 35 0 24 -5 35 -15 35
-10 0 -15 -11 -15 -35 0 -24 -5 -35 -15 -35 -11 0 -15 -12 -15 -45 0 -45 0
-45 -35 -45 -35 0 -35 0 -35 44 0 36 4 45 21 49 16 4 20 12 17 34 -2 17 -10
29 -20 31 -15 3 -18 -4 -18 -32 0 -25 -4 -36 -15 -36 -11 0 -15 -12 -15 -45 0
-43 -1 -45 -30 -45 -27 0 -30 3 -30 30 0 20 5 30 15 30 10 0 15 11 15 35 0 24
5 35 15 35 8 0 15 7 15 15 0 8 7 15 15 15 8 0 15 7 15 15 0 8 9 15 20 15 11 0
20 -7 20 -15z m-395 -195 c0 -22 -29 -18 -33 3 -3 14 1 18 15 15 10 -2 18 -10
18 -18z m33 -32 c-6 -18 -28 -21 -28 -4 0 9 7 16 16 16 9 0 14 -5 12 -12z
m322 -4 c0 -17 -22 -14 -28 4 -2 7 3 12 12 12 9 0 16 -7 16 -16z m68 4 c-6
-18 -28 -21 -28 -4 0 9 7 16 16 16 9 0 14 -5 12 -12z m132 2 c0 -5 -8 -10 -19
-10 -10 0 -33 -3 -50 -6 -24 -5 -31 -3 -31 10 0 13 11 16 50 16 28 0 50 -4 50
-10z m-560 -35 c0 -8 -7 -15 -15 -15 -16 0 -20 12 -8 23 11 12 23 8 23 -8z
m590 0 c0 -8 -7 -15 -15 -15 -8 0 -15 7 -15 15 0 8 7 15 15 15 8 0 15 -7 15
-15z m-230 -30 c0 -10 -10 -15 -30 -15 -20 0 -30 5 -30 15 0 10 10 15 30 15
20 0 30 -5 30 -15z m0 -70 c0 -10 -10 -15 -30 -15 -20 0 -30 5 -30 15 0 10 10
15 30 15 20 0 30 -5 30 -15z m100 0 c0 -10 -10 -15 -30 -15 -20 0 -30 5 -30
15 0 10 10 15 30 15 20 0 30 -5 30 -15z m-100 -60 c0 -8 -7 -15 -15 -15 -8 0
-15 7 -15 15 0 8 7 15 15 15 8 0 15 -7 15 -15z m-32 -37 c-6 -18 -28 -21 -28
-4 0 9 7 16 16 16 9 0 14 -5 12 -12z m202 -33 c0 -8 -7 -15 -15 -15 -8 0 -15
7 -15 15 0 8 7 15 15 15 8 0 15 -7 15 -15z m120 -20 c0 -19 -4 -35 -10 -35 -5
0 -10 -13 -10 -30 0 -23 -4 -30 -20 -30 -16 0 -20 -7 -20 -35 0 -32 -3 -35
-27 -35 -57 0 -73 10 -73 45 0 18 3 47 6 64 6 30 7 31 65 31 59 0 59 0 59 30
0 20 5 30 15 30 10 0 15 -11 15 -35z m-580 -10 c0 -8 7 -15 15 -15 11 0 15
-12 15 -50 l0 -50 -45 0 -45 0 0 65 0 65 30 0 c20 0 30 -5 30 -15z m257 -94
c3 -11 13 -21 24 -24 16 -4 19 -15 19 -66 0 -42 -4 -61 -12 -61 -7 0 -23 -3
-35 -6 -23 -6 -23 -5 -23 85 0 59 4 91 11 91 6 0 13 -9 16 -19z m231 -182 l3
-67 -36 -6 c-62 -12 -93 0 -101 40 -3 19 -3 50 0 69 l7 36 62 -3 62 -3 3 -66z
m-188 -84 c0 -8 -9 -15 -20 -15 -11 0 -20 7 -20 15 0 8 9 15 20 15 11 0 20 -7
20 -15z m350 -65 l0 -50 -65 0 -65 0 0 35 c0 24 5 35 15 35 8 0 15 7 15 15 0
11 12 15 50 15 l50 0 0 -50z m-320 5 c0 -8 7 -15 15 -15 11 0 15 -11 15 -35 0
-22 -6 -38 -15 -41 -8 -4 -15 -12 -15 -20 0 -10 -14 -14 -50 -14 l-50 0 0 70
0 70 50 0 c38 0 50 -4 50 -15z m200 -130 c0 -8 5 -15 10 -15 18 0 11 -70 -9
-91 -14 -16 -29 -20 -62 -17 l-44 3 -3 44 c-2 26 -10 50 -19 56 -29 21 -4 35
63 35 50 0 64 -3 64 -15z m-242 -85 c8 0 12 -20 12 -65 0 -45 -4 -65 -12 -65
-7 0 -23 -3 -35 -6 -22 -6 -23 -4 -23 71 0 75 1 77 23 71 12 -3 28 -6 35 -6z
m262 -130 c0 -29 -4 -40 -15 -40 -11 0 -15 11 -15 40 0 29 4 40 15 40 11 0 15
-11 15 -40z m-90 -65 l0 -65 -35 0 -35 0 0 65 0 65 35 0 35 0 0 -65z m-100
-29 c0 -29 -4 -34 -27 -39 -16 -3 -31 -3 -35 0 -14 8 -8 43 7 43 8 0 15 7 15
15 0 8 9 15 20 15 16 0 20 -7 20 -34z m680 -36 l0 -60 -109 0 c-88 0 -110 3
-115 15 -3 8 -12 15 -21 15 -10 0 -15 10 -15 30 0 23 4 30 20 30 11 0 20 7 20
15 0 12 19 15 110 15 l110 0 0 -60z m-712 -82 c-3 -8 -28 -14 -66 -16 -51 -2
-62 0 -62 13 0 12 13 15 66 15 48 0 65 -3 62 -12z m222 -3 c0 -12 -14 -15 -65
-15 -51 0 -65 3 -65 15 0 12 14 15 65 15 51 0 65 -3 65 -15z"/>
<path d="M650 4295 c0 -10 11 -15 35 -15 24 0 35 -5 35 -15 0 -8 7 -15 15 -15
8 0 15 7 15 15 0 8 -7 15 -15 15 -8 0 -15 7 -15 15 0 10 -11 15 -35 15 -24 0
-35 -5 -35 -15z"/>
<path d="M620 4195 c0 -11 12 -15 50 -15 38 0 50 4 50 15 0 11 -12 15 -50 15
-38 0 -50 -4 -50 -15z"/>
<path d="M720 4135 c0 -10 -11 -15 -35 -15 -28 0 -35 -4 -35 -20 0 -16 7 -20
31 -20 22 0 32 5 36 20 3 11 12 20 19 20 8 0 14 7 14 15 0 8 -7 15 -15 15 -8
0 -15 -7 -15 -15z"/>
<path d="M880 4035 c0 -8 -7 -15 -15 -15 -10 0 -15 -11 -15 -35 0 -28 -4 -35
-20 -35 -16 0 -20 -7 -20 -30 0 -20 -5 -30 -15 -30 -10 0 -15 -11 -15 -35 l0
-35 -50 0 c-38 0 -50 -4 -50 -15 0 -8 9 -15 20 -15 11 0 20 -7 20 -15 0 -8 7
-15 15 -15 8 0 15 -9 15 -20 0 -16 7 -20 30 -20 23 0 30 4 30 20 0 11 -7 20
-15 20 -8 0 -15 7 -15 15 0 8 7 15 15 15 10 0 15 10 15 29 0 20 6 30 20 34 15
4 20 14 20 36 0 21 5 31 15 31 10 0 15 10 15 30 0 20 5 30 15 30 10 0 15 11
15 35 0 24 -5 35 -15 35 -8 0 -15 -7 -15 -15z"/>
<path d="M10780 2765 c0 -8 -7 -15 -15 -15 -8 0 -15 -6 -15 -14 0 -7 -9 -16
-20 -19 -11 -3 -20 -12 -20 -21 0 -9 -7 -16 -15 -16 -10 0 -15 -10 -15 -30 0
-20 -5 -30 -15 -30 -24 0 -21 -125 3 -140 16 -10 16 -10 0 -20 -10 -6 -18 -18
-18 -25 0 -10 -10 -15 -30 -15 l-30 0 0 65 c0 58 -2 65 -20 65 -11 0 -20 7
-20 15 0 8 -7 15 -15 15 -8 0 -15 9 -15 20 0 17 -7 20 -50 20 -38 0 -50 -4
-50 -15 0 -8 -7 -15 -15 -15 -8 0 -15 -9 -15 -20 0 -11 7 -20 15 -20 8 0 15
-7 15 -15 0 -8 -7 -15 -15 -15 -8 0 -15 7 -15 15 0 8 -7 15 -15 15 -12 0 -15
-14 -15 -65 0 -51 3 -65 15 -65 10 0 15 -11 15 -35 0 -24 5 -35 15 -35 8 0 15
-7 15 -15 0 -8 7 -15 15 -15 10 0 15 -10 15 -30 0 -20 -5 -30 -15 -30 -8 0
-15 -7 -15 -15 0 -8 -7 -15 -15 -15 -12 0 -15 -14 -15 -70 0 -56 3 -70 15 -70
8 0 15 -7 15 -15 0 -8 7 -15 15 -15 13 0 15 -28 15 -195 0 -167 -2 -195 -15
-195 -8 0 -15 -7 -15 -15 0 -11 12 -15 50 -15 38 0 50 4 50 15 0 8 -7 15 -15
15 -13 0 -15 27 -15 180 l0 180 30 0 c28 0 30 -3 30 -35 0 -23 5 -35 14 -35 8
0 16 -7 20 -15 3 -8 12 -15 21 -15 8 0 15 -7 15 -15 0 -8 7 -15 15 -15 8 0 15
-7 15 -15 0 -8 7 -15 15 -15 13 0 15 -25 15 -165 0 -132 3 -165 14 -165 14 0
26 -96 26 -207 0 -46 -2 -53 -20 -53 -11 0 -20 -7 -20 -15 0 -8 -7 -15 -15
-15 -11 0 -15 -11 -15 -35 l0 -36 98 3 97 3 3 178 2 177 45 0 45 0 0 -130 c0
-109 -2 -130 -15 -130 -8 0 -15 -7 -15 -15 0 -8 -7 -15 -15 -15 -10 0 -15 -11
-15 -35 l0 -35 94 0 94 0 7 259 7 260 47 3 46 3 3 78 c3 72 1 79 -18 84 -23 6
-27 33 -5 33 9 0 18 7 21 15 4 8 12 15 20 15 8 0 14 7 14 15 0 11 12 15 46 15
37 0 47 4 51 20 3 11 12 20 19 20 8 0 14 7 14 15 0 8 7 15 15 15 8 0 15 7 15
15 0 9 -7 18 -15 21 -8 4 -15 10 -15 15 0 5 7 9 15 9 8 0 15 9 15 20 0 11 7
20 15 20 11 0 15 12 15 50 0 38 -4 50 -15 50 -12 0 -15 14 -15 65 0 51 -3 65
-15 65 -8 0 -15 7 -15 15 0 10 -11 15 -35 15 -24 0 -35 -5 -35 -15 0 -10 -11
-15 -35 -15 -24 0 -35 -5 -35 -15 0 -10 -10 -15 -30 -15 l-30 0 0 175 c0 149
-2 175 -15 175 -8 0 -15 7 -15 15 0 9 -7 18 -15 21 -8 4 -15 12 -15 20 0 9
-12 14 -35 14 -24 0 -35 5 -35 15 0 12 -19 15 -115 15 -96 0 -115 -3 -115 -15z
m30 -35 c0 -12 7 -20 16 -20 9 0 18 9 21 20 4 14 14 20 34 20 22 0 29 -5 29
-20 0 -11 -7 -20 -15 -20 -10 0 -15 -10 -15 -30 0 -20 -5 -30 -15 -30 -11 0
-15 -12 -15 -50 l0 -50 -35 0 -35 0 0 50 c0 38 4 50 15 50 10 0 15 10 15 30 0
20 -5 30 -15 30 -10 0 -15 -10 -15 -30 0 -20 -5 -30 -15 -30 -11 0 -15 -12
-15 -51 l0 -50 -32 3 c-29 3 -33 7 -36 36 -3 27 0 32 17 32 17 0 21 6 21 30 0
20 5 30 15 30 8 0 15 7 15 15 0 8 6 15 14 15 7 0 16 9 19 20 3 11 10 20 16 20
6 0 11 -9 11 -20z m200 0 c0 -16 7 -20 30 -20 20 0 30 -5 30 -15 0 -8 9 -15
20 -15 19 0 20 -7 20 -126 0 -117 -1 -126 -20 -131 -11 -3 -20 -12 -20 -19 0
-8 -7 -14 -15 -14 -8 0 -15 -7 -15 -15 0 -8 -7 -15 -15 -15 -8 0 -15 -6 -15
-14 0 -8 -15 -17 -35 -20 -21 -4 -35 -13 -35 -21 0 -11 -13 -15 -50 -15 -38 0
-50 -4 -50 -15 0 -15 -20 -22 -20 -7 0 4 -3 17 -6 30 -6 21 -3 22 45 22 l51 0
0 35 c0 33 2 35 35 35 24 0 35 5 35 15 0 11 -18 15 -82 17 -54 2 -83 7 -86 16
-3 9 18 12 82 12 70 0 86 -3 86 -15 0 -10 10 -15 30 -15 29 0 30 1 30 50 0 38
-4 50 -15 50 -8 0 -15 7 -15 15 0 8 7 15 15 15 8 0 15 7 15 15 0 8 -7 15 -15
15 -8 0 -15 -7 -15 -15 0 -12 -14 -15 -65 -15 l-65 0 0 50 c0 38 4 50 15 50
10 0 15 10 15 29 0 20 6 30 20 34 11 3 20 12 20 21 0 11 9 16 30 16 23 0 30
-4 30 -20z m-490 -165 c0 -8 7 -15 15 -15 8 0 15 -7 15 -15 0 -8 -7 -15 -15
-15 -8 0 -15 -7 -15 -15 0 -8 -7 -15 -15 -15 -8 0 -15 7 -15 15 0 8 7 15 15
15 8 0 15 7 15 15 0 10 -10 15 -30 15 -20 0 -30 5 -30 15 0 10 10 15 30 15 20
0 30 -5 30 -15z m-70 -60 c0 -8 -4 -15 -10 -15 -5 0 -10 7 -10 15 0 8 5 15 10
15 6 0 10 -7 10 -15z m268 -3 c2 -7 -6 -12 -17 -12 -21 0 -27 11 -14 24 9 9
26 2 31 -12z m62 3 c0 -8 -7 -15 -15 -15 -8 0 -15 7 -15 15 0 8 7 15 15 15 8
0 15 -7 15 -15z m68 -3 c2 -7 -6 -12 -17 -12 -21 0 -27 11 -14 24 9 9 26 2 31
-12z m130 1 c2 -9 -11 -13 -47 -13 -39 0 -51 4 -51 16 0 12 10 14 47 12 26 -2
48 -9 51 -15z m-558 -33 c0 -5 -7 -10 -15 -10 -8 0 -15 5 -15 10 0 6 7 10 15
10 8 0 15 -4 15 -10z m130 0 c0 -5 -7 -10 -15 -10 -8 0 -15 5 -15 10 0 6 7 10
15 10 8 0 15 -4 15 -10z m460 0 c0 -5 -7 -10 -15 -10 -8 0 -15 5 -15 10 0 6 7
10 15 10 8 0 15 -4 15 -10z m-556 -42 c12 -45 7 -68 -14 -68 -14 0 -20 7 -20
23 0 31 11 67 20 67 4 0 10 -10 14 -22z m66 -23 c0 -33 -4 -45 -15 -45 -11 0
-15 12 -15 45 0 33 4 45 15 45 11 0 15 -12 15 -45z m260 30 c0 -10 -10 -15
-30 -15 -20 0 -30 5 -30 15 0 10 10 15 30 15 20 0 30 -5 30 -15z m-160 -80 c0
-24 5 -35 15 -35 8 0 15 -7 15 -15 0 -8 7 -15 15 -15 8 0 15 -7 15 -15 0 -8
-7 -15 -15 -15 -10 0 -15 -11 -15 -35 0 -24 -5 -35 -15 -35 -10 0 -15 -10 -15
-30 0 -20 -5 -30 -15 -30 -8 0 -15 -9 -15 -20 0 -11 7 -20 15 -20 8 0 15 -7
15 -15 0 -8 7 -15 15 -15 12 0 15 14 15 65 0 51 3 65 15 65 12 0 15 -17 15
-95 l0 -95 -30 0 c-20 0 -30 -5 -30 -15 0 -8 -7 -15 -15 -15 -8 0 -15 7 -15
15 0 8 7 15 15 15 8 0 15 7 15 15 0 10 -10 15 -30 15 -18 0 -33 6 -36 15 -4 8
-12 15 -20 15 -8 0 -14 7 -14 15 0 8 7 15 15 15 8 0 15 7 15 16 0 9 9 18 20
21 11 3 20 11 20 18 0 7 -9 15 -20 18 -11 3 -20 10 -20 16 0 6 9 11 20 11 12
0 20 7 20 16 0 9 -9 18 -20 21 -14 4 -20 14 -20 34 0 19 -5 29 -15 29 -8 0
-15 -7 -15 -15 0 -8 -7 -15 -15 -15 -8 0 -15 7 -15 15 0 8 7 15 15 15 10 0 15
10 15 30 0 19 5 30 14 30 7 0 16 9 19 20 4 15 14 20 36 20 29 0 31 -3 31 -35z
m60 5 c0 -20 -5 -30 -15 -30 -10 0 -15 10 -15 30 0 20 5 30 15 30 10 0 15 -10
15 -30z m100 15 c0 -10 -10 -15 -30 -15 -20 0 -30 5 -30 15 0 10 10 15 30 15
20 0 30 -5 30 -15z m100 0 c0 -10 -11 -15 -35 -15 -33 0 -43 8 -28 23 13 14
63 7 63 -8z m228 -18 c3 -25 0 -27 -32 -27 -39 0 -49 14 -16 23 11 3 20 13 20
22 0 27 25 11 28 -18z m222 -52 c0 -33 -4 -45 -15 -45 -8 0 -15 -7 -15 -14 0
-11 -14 -16 -47 -18 -35 -2 -48 -7 -48 -18 0 -11 13 -16 48 -18 37 -2 47 0 47
12 0 9 7 16 15 16 8 0 15 -7 15 -15 0 -8 9 -15 20 -15 16 0 20 -7 20 -30 0
-23 -4 -30 -20 -30 -11 0 -20 -7 -20 -15 0 -10 -10 -15 -30 -15 -23 0 -30 -4
-30 -20 0 -16 7 -20 30 -20 20 0 30 -5 30 -15 0 -8 -7 -15 -15 -15 -8 0 -15
-7 -15 -15 0 -10 -10 -15 -30 -15 -27 0 -30 3 -30 30 0 19 -5 30 -14 30 -7 0
-16 9 -19 20 -3 11 -12 20 -21 20 -9 0 -16 -8 -16 -20 0 -11 7 -20 15 -20 11
0 15 -12 15 -44 0 -30 -5 -46 -15 -50 -8 -3 -15 -12 -15 -21 0 -8 -7 -15 -15
-15 -12 0 -15 16 -15 85 0 69 3 85 15 85 8 0 15 7 15 15 0 8 -7 15 -15 15 -12
0 -15 16 -15 80 0 64 -3 80 -15 80 -8 0 -15 7 -15 15 0 8 7 15 15 15 8 0 15
-7 15 -15 0 -10 11 -15 35 -15 24 0 35 5 35 15 0 10 10 15 30 15 20 0 30 5 30
15 0 10 10 15 30 15 29 0 30 -2 30 -45z m-550 0 c0 -8 -7 -15 -15 -15 -12 0
-15 -17 -15 -95 0 -78 3 -95 15 -95 12 0 15 16 15 80 0 61 3 80 14 80 7 0 16
-9 19 -20 3 -11 10 -20 17 -20 7 0 14 9 17 20 3 11 12 20 19 20 11 0 14 -19
14 -80 0 -64 3 -80 15 -80 12 0 15 15 15 76 0 67 2 76 20 81 11 3 20 12 20 19
0 10 16 14 60 14 44 0 60 -4 60 -14 0 -7 9 -16 20 -19 19 -5 20 -14 20 -196
l0 -191 -35 0 -35 0 0 130 c0 109 -2 130 -15 130 -13 0 -15 -24 -15 -160 0
-136 -2 -160 -15 -160 -10 0 -15 -11 -15 -35 0 -24 5 -35 15 -35 8 0 15 -9 15
-20 0 -11 7 -20 15 -20 12 0 15 -13 15 -60 l0 -60 -160 0 -160 0 0 304 c0 295
-1 304 -20 309 -14 3 -20 14 -20 32 0 18 6 29 20 32 11 3 20 12 20 19 0 8 7
14 15 14 8 0 15 7 15 15 0 8 7 15 15 15 8 0 15 -7 15 -15z m-293 -95 c3 -11
12 -20 19 -20 10 0 14 -13 14 -45 l0 -45 -44 0 c-37 0 -45 4 -50 23 -8 30 -8
92 1 100 15 15 55 7 60 -13z m193 -280 c0 -20 -5 -30 -15 -30 -8 0 -15 7 -15
15 0 8 -7 15 -15 15 -8 0 -15 7 -15 15 0 10 10 15 30 15 27 0 30 -3 30 -30z
m460 -145 l0 -45 -65 0 -65 0 0 30 c0 20 5 30 15 30 8 0 15 7 15 15 0 11 12
15 50 15 l50 0 0 -45z m-330 -325 l0 -80 -30 0 -30 0 0 80 0 80 30 0 30 0 0
-80z m230 0 l0 -80 -30 0 -30 0 0 80 0 80 30 0 30 0 0 -80z m-230 -145 c0 -32
-2 -35 -30 -35 -28 0 -30 3 -30 35 0 32 2 35 30 35 28 0 30 -3 30 -35z m230 0
c0 -32 -2 -35 -30 -35 -28 0 -30 3 -30 35 0 32 2 35 30 35 28 0 30 -3 30 -35z
m-230 -80 c0 -12 -14 -15 -65 -15 -51 0 -65 3 -65 15 0 12 14 15 65 15 51 0
65 -3 65 -15z m230 0 c0 -12 -14 -15 -65 -15 -51 0 -65 3 -65 15 0 12 14 15
65 15 51 0 65 -3 65 -15z"/>
<path d="M8570 2290 c0 -162 2 -190 15 -190 8 0 15 -9 15 -20 0 -11 7 -20 15
-20 8 0 15 -7 15 -15 0 -8 -7 -15 -15 -15 -8 0 -15 -7 -15 -15 0 -8 -7 -15
-15 -15 -10 0 -15 -10 -15 -31 0 -22 -5 -32 -20 -36 -14 -4 -20 -14 -20 -34 0
-19 -5 -29 -15 -29 -8 0 -15 7 -15 15 0 8 -7 15 -15 15 -10 0 -15 11 -15 35 0
23 -5 35 -14 35 -8 0 -16 7 -20 15 -3 8 -12 15 -21 15 -10 0 -15 10 -15 30 0
21 5 30 16 30 9 0 18 9 21 20 3 11 12 20 19 20 9 0 14 11 14 30 0 20 5 30 15
30 12 0 15 14 15 65 0 51 -3 65 -15 65 -8 0 -15 7 -15 15 0 8 -6 15 -14 15 -7
0 -16 9 -19 20 -4 16 -14 20 -51 20 l-46 0 0 -50 c0 -38 4 -50 15 -50 8 0 15
-7 15 -15 0 -8 -7 -15 -15 -15 -8 0 -15 -9 -15 -20 0 -11 7 -20 15 -20 11 0
15 -12 15 -45 0 -33 -4 -45 -15 -45 -8 0 -15 -9 -15 -20 0 -11 7 -20 15 -20
10 0 15 -10 15 -30 0 -20 -5 -30 -15 -30 -12 0 -15 -18 -15 -100 0 -82 3 -100
15 -100 13 0 15 -28 15 -195 0 -167 -2 -195 -15 -195 -8 0 -15 -7 -15 -15 0
-11 12 -15 50 -15 36 0 50 4 50 14 0 7 -9 16 -20 19 -19 5 -20 14 -20 181 l0
176 35 0 c24 0 35 -5 35 -15 0 -10 10 -15 29 -15 20 0 30 -6 34 -20 4 -15 14
-20 36 -20 l31 0 0 -325 c0 -282 2 -325 15 -325 8 0 15 -7 15 -15 0 -8 -7 -15
-15 -15 -8 0 -15 -7 -15 -15 0 -8 -7 -15 -15 -15 -10 0 -15 -11 -15 -35 l0
-35 95 0 95 0 0 65 c0 49 3 65 14 65 8 0 16 -7 20 -15 3 -8 12 -15 21 -15 8 0
15 -7 15 -15 0 -8 -9 -15 -21 -15 -17 0 -20 -5 -17 -32 3 -29 7 -33 36 -36
l32 -3 0 590 c0 524 -2 591 -15 591 -9 0 -18 -7 -21 -15 -5 -12 -26 -15 -100
-15 -77 0 -94 3 -94 15 0 8 -7 15 -15 15 -10 0 -15 10 -15 30 l0 30 130 0
c123 0 130 1 130 20 0 17 -7 20 -50 20 -50 0 -67 13 -30 23 23 6 27 37 5 37
-8 0 -15 7 -15 16 0 13 9 15 45 12 l45 -3 0 82 c0 67 -3 83 -15 83 -8 0 -15 7
-15 15 0 12 -14 15 -64 15 -48 0 -65 -4 -70 -15 -3 -9 -18 -15 -36 -15 -20 0
-30 -5 -30 -15 0 -8 -7 -15 -15 -15 -10 0 -15 10 -15 30 0 20 -5 30 -15 30
-13 0 -15 -28 -15 -190z m-130 15 c0 -8 7 -15 15 -15 8 0 15 -7 15 -15 0 -8
-7 -15 -15 -15 -9 0 -18 -7 -21 -15 -4 -8 -10 -15 -15 -15 -5 0 -9 7 -9 15 0
8 7 15 15 15 8 0 15 7 15 15 0 10 -11 15 -35 15 -24 0 -35 5 -35 15 0 10 11
15 35 15 24 0 35 -5 35 -15z m220 -30 c0 -8 -7 -15 -15 -15 -8 0 -15 -9 -15
-20 0 -11 7 -20 15 -20 8 0 15 -4 15 -10 0 -5 -13 -10 -30 -10 -29 0 -30 2
-30 45 0 43 1 45 30 45 20 0 30 -5 30 -15z m30 -30 c0 -8 -4 -15 -10 -15 -5 0
-10 7 -10 15 0 8 5 15 10 15 6 0 10 -7 10 -15z m70 0 c0 -8 -7 -15 -15 -15 -8
0 -15 7 -15 15 0 8 7 15 15 15 8 0 15 -7 15 -15z m-292 -37 c-6 -18 -28 -21
-28 -4 0 9 7 16 16 16 9 0 14 -5 12 -12z m-34 -34 c3 -9 6 -29 6 -45 0 -22 -5
-29 -20 -29 -15 0 -20 7 -20 29 0 34 9 61 20 61 4 0 11 -7 14 -16z"/>
<path d="M8662 2113 c2 -14 15 -19 51 -21 42 -3 47 -1 47 17 0 18 -6 21 -51
21 -43 0 -50 -3 -47 -17z"/>
<path d="M2770 1726 c0 -10 -9 -20 -20 -23 -11 -3 -20 -12 -20 -19 0 -8 -7
-14 -15 -14 -8 0 -15 -7 -15 -15 0 -8 -7 -15 -15 -15 -10 0 -15 -11 -15 -35 0
-24 -5 -35 -15 -35 -12 0 -15 -14 -15 -65 0 -51 3 -65 15 -65 8 0 15 7 15 15
0 8 7 15 15 15 8 0 15 -7 15 -15 0 -8 -7 -15 -15 -15 -12 0 -15 -14 -15 -65 0
-51 3 -65 15 -65 10 0 15 -10 15 -30 0 -20 -5 -30 -15 -30 -8 0 -15 -6 -15
-14 0 -7 -9 -16 -21 -19 -11 -3 -19 -11 -18 -19 4 -30 -2 -48 -16 -48 -10 0
-15 -11 -15 -35 0 -19 -4 -35 -10 -35 -5 0 -10 7 -10 16 0 9 -9 18 -20 21 -14
4 -20 14 -20 34 0 19 -5 29 -15 29 -8 0 -15 7 -15 15 0 9 -7 18 -15 21 -9 4
-15 19 -15 35 0 19 5 29 15 29 8 0 15 7 15 15 0 8 7 15 15 15 10 0 15 10 15
29 0 20 6 30 20 34 17 4 20 14 20 67 0 53 -3 63 -20 67 -11 3 -20 12 -20 19 0
8 -7 14 -15 14 -8 0 -15 7 -15 15 0 11 -12 15 -50 15 -38 0 -50 -4 -50 -15 0
-8 -7 -15 -15 -15 -8 0 -15 -7 -15 -15 0 -8 7 -15 15 -15 8 0 15 -9 15 -20 0
-11 7 -20 15 -20 8 0 15 -7 15 -15 0 -8 -7 -15 -15 -15 -8 0 -15 -7 -15 -15 0
-8 7 -15 15 -15 11 0 15 -12 15 -50 0 -38 -4 -50 -15 -50 -11 0 -15 12 -15 50
0 38 -4 50 -15 50 -8 0 -15 7 -15 15 0 8 7 15 15 15 8 0 15 7 15 15 0 8 -7 15
-15 15 -8 0 -15 9 -15 20 0 13 -7 20 -20 20 -18 0 -20 -7 -20 -70 0 -63 2 -70
20 -70 16 0 20 -7 20 -30 0 -20 5 -30 15 -30 8 0 15 -6 15 -14 0 -8 7 -16 15
-20 8 -3 15 -16 15 -30 0 -13 -7 -26 -15 -30 -8 -3 -15 -12 -15 -21 0 -8 -7
-15 -15 -15 -12 0 -15 -14 -15 -64 0 -48 4 -65 15 -70 8 -3 15 -12 15 -21 0
-10 10 -15 30 -15 20 0 30 -5 30 -15 0 -10 11 -15 35 -15 24 0 35 -5 35 -15 0
-10 10 -15 30 -15 20 0 30 -5 30 -15 0 -10 11 -15 35 -15 l35 0 0 -215 c0
-184 2 -215 15 -215 13 0 15 -21 15 -125 0 -104 -2 -125 -15 -125 -8 0 -15 -9
-15 -20 0 -11 -7 -20 -15 -20 -10 0 -15 -10 -15 -30 l0 -30 95 0 95 0 0 108
c0 59 3 137 7 175 l6 67 43 0 44 0 0 -125 c0 -104 -2 -125 -15 -125 -8 0 -15
-9 -15 -20 0 -11 -7 -20 -15 -20 -10 0 -15 -10 -15 -30 l0 -30 95 0 95 0 0
174 c0 165 1 174 20 179 18 5 20 14 20 86 l0 81 30 0 30 0 0 80 c0 64 -3 80
-15 80 -12 0 -15 18 -15 100 0 82 3 100 15 100 12 0 15 14 15 65 0 51 -3 65
-15 65 -10 0 -15 10 -15 28 0 27 -37 72 -59 72 -6 0 -11 7 -11 15 0 8 -7 15
-15 15 -8 0 -15 7 -15 15 0 8 7 15 15 15 8 0 15 7 15 15 0 8 9 15 20 15 11 0
20 7 20 15 0 8 7 15 15 15 13 0 15 21 15 130 0 107 -3 132 -15 136 -8 4 -15
12 -15 20 0 8 -9 14 -20 14 -11 0 -20 7 -20 15 0 10 -10 15 -30 15 -20 0 -30
5 -30 15 0 11 -12 15 -47 15 -27 0 -78 3 -115 7 -60 5 -68 4 -68 -11z m130
-41 c0 -8 -7 -15 -15 -15 -10 0 -15 -10 -15 -31 0 -22 -5 -32 -20 -36 -16 -4
-20 -14 -20 -49 0 -42 -1 -44 -30 -44 -29 0 -30 2 -30 45 0 33 4 45 15 45 10
0 15 11 15 35 0 24 5 35 15 35 8 0 15 7 15 15 0 10 11 15 35 15 24 0 35 -5 35
-15z m-390 -160 c0 -8 7 -15 15 -15 8 0 15 -9 15 -20 0 -11 -7 -20 -15 -20 -8
0 -15 -7 -15 -15 0 -8 7 -15 15 -15 8 0 15 -7 15 -15 0 -8 -7 -15 -15 -15 -8
0 -15 7 -15 15 0 8 -7 15 -15 15 -8 0 -15 7 -15 15 0 8 7 15 15 15 8 0 15 9
15 20 0 16 -7 20 -35 20 -33 0 -43 8 -28 23 13 14 63 7 63 -8z m258 -67 c-6
-18 -28 -21 -28 -4 0 9 7 16 16 16 9 0 14 -5 12 -12z m62 -3 c0 -8 -7 -15 -15
-15 -8 0 -15 7 -15 15 0 8 7 15 15 15 8 0 15 -7 15 -15z m130 0 c0 -11 -12
-15 -45 -15 -33 0 -45 4 -45 15 0 11 12 15 45 15 33 0 45 -4 45 -15z m30 -30
c0 -8 -4 -15 -10 -15 -5 0 -10 7 -10 15 0 8 5 15 10 15 6 0 10 -7 10 -15z
m-482 -68 c2 -36 0 -47 -12 -47 -23 0 -28 17 -21 61 9 54 29 45 33 -14z m262
33 c0 -5 -13 -10 -30 -10 -16 0 -30 5 -30 10 0 6 14 10 30 10 17 0 30 -4 30
-10z m190 0 c0 -6 -33 -10 -80 -10 -47 0 -80 4 -80 10 0 6 33 10 80 10 47 0
80 -4 80 -10z m-199 -65 c0 -5 -12 -11 -26 -13 -18 -2 -25 1 -25 13 0 12 7 15
25 13 14 -2 26 -7 26 -13z m99 0 c0 -10 -10 -15 -30 -15 -20 0 -30 5 -30 15 0
10 10 15 30 15 20 0 30 -5 30 -15z m200 -100 c0 -8 7 -15 15 -15 10 0 15 -10
15 -29 0 -20 6 -30 20 -34 16 -4 20 -14 20 -51 0 -33 -4 -46 -14 -46 -15 0
-26 30 -26 73 0 17 -5 27 -15 27 -10 0 -15 10 -15 30 0 20 -5 30 -15 30 -10 0
-15 -11 -15 -35 0 -24 5 -35 15 -35 11 0 15 -12 15 -45 0 -33 -4 -45 -15 -45
-8 0 -15 9 -15 20 0 23 -17 25 -42 6 -16 -11 -18 -31 -18 -137 l0 -124 -27
-12 c-35 -17 -110 -17 -116 0 -4 10 -7 10 -18 0 -7 -7 -32 -13 -55 -13 l-41 0
-7 115 c-4 64 -4 145 -1 180 7 62 6 65 -14 65 -16 0 -21 6 -21 29 0 23 5 30
27 34 28 5 72 -25 73 -50 0 -9 16 -13 44 -13 36 0 46 4 51 20 4 14 15 20 35
20 16 0 30 7 34 16 5 13 15 15 51 10 37 -6 45 -4 45 8 0 9 7 16 15 16 8 0 15
-7 15 -15z m-390 -95 c0 -5 -7 -10 -15 -10 -8 0 -15 5 -15 10 0 6 7 10 15 10
8 0 15 -4 15 -10z m-100 -65 c0 -8 6 -15 14 -15 7 0 16 -9 19 -20 3 -11 12
-20 21 -20 12 0 16 10 16 35 0 24 5 35 15 35 12 0 15 -14 15 -65 l0 -65 -30 0
c-23 0 -30 4 -30 20 0 16 -7 20 -35 20 -24 0 -35 5 -35 15 0 8 -7 15 -15 15
-8 0 -15 7 -15 15 0 8 7 15 15 15 8 0 15 7 15 15 0 8 7 15 15 15 8 0 15 -7 15
-15z m520 -144 c0 -84 -1 -89 -22 -95 -13 -3 -26 -6 -30 -6 -5 0 -8 43 -8 95
l0 95 30 0 30 0 0 -89z m-130 -196 c0 -28 4 -35 20 -35 11 0 20 -7 20 -15 0
-10 10 -15 30 -15 l30 0 0 -65 0 -65 -95 0 -95 0 0 80 c0 73 -2 80 -20 80 -18
0 -20 -7 -20 -80 l0 -80 -65 0 -65 0 0 108 c0 60 3 112 7 115 3 4 62 7 130 7
l123 0 0 -35z m-160 -310 c0 -58 -3 -75 -14 -75 -8 0 -21 -3 -30 -6 -14 -5
-16 5 -16 75 l0 81 30 0 30 0 0 -75z m230 0 c0 -58 -3 -75 -14 -75 -8 0 -21
-3 -30 -6 -14 -5 -16 5 -16 75 l0 81 30 0 30 0 0 -75z m-230 -145 c0 -27 -3
-30 -30 -30 -27 0 -30 3 -30 30 0 27 3 30 30 30 27 0 30 -3 30 -30z m230 0 c0
-28 -3 -30 -35 -30 -32 0 -35 2 -35 30 0 28 3 30 35 30 32 0 35 -2 35 -30z"/>
<path d="M11630 1724 c0 -9 -9 -18 -20 -21 -14 -4 -20 -14 -20 -34 0 -19 -5
-29 -15 -29 -11 0 -15 -12 -15 -50 0 -38 -4 -50 -15 -50 -12 0 -15 -14 -15
-65 0 -51 3 -65 15 -65 11 0 15 -12 15 -50 0 -43 3 -50 20 -50 11 0 20 -7 20
-15 0 -8 7 -15 15 -15 8 0 15 -9 15 -20 0 -11 -7 -20 -15 -20 -8 0 -15 -7 -15
-15 0 -8 -9 -15 -20 -15 -16 0 -20 -7 -20 -30 0 -20 -5 -30 -15 -30 -10 0 -15
-10 -15 -30 0 -20 -5 -30 -15 -30 -8 0 -15 7 -15 15 0 8 -7 15 -15 15 -10 0
-15 10 -15 30 0 23 -4 30 -20 30 -11 0 -20 7 -20 15 0 8 -7 15 -15 15 -10 0
-15 11 -15 35 0 24 5 35 15 35 8 0 15 7 15 15 0 8 -7 15 -15 15 -11 0 -15 12
-15 45 0 31 5 47 15 51 8 4 15 12 15 20 0 8 -7 14 -15 14 -8 0 -15 7 -15 15 0
8 7 15 15 15 8 0 15 9 15 20 0 16 -7 20 -30 20 -20 0 -30 5 -30 15 0 10 10 15
30 15 19 0 30 -5 30 -14 0 -7 9 -16 20 -19 11 -3 20 -10 20 -17 0 -7 -9 -14
-20 -17 -23 -6 -27 -33 -5 -33 8 0 15 -7 15 -15 0 -8 -7 -15 -15 -15 -11 0
-15 -12 -15 -50 0 -43 3 -50 20 -50 15 0 20 7 20 29 0 16 6 31 15 35 11 4 15
22 15 71 0 51 -3 65 -15 65 -8 0 -15 7 -15 15 0 8 -7 15 -15 15 -8 0 -15 7
-15 15 0 12 -13 15 -55 15 -42 0 -55 -3 -55 -15 0 -8 -7 -15 -15 -15 -8 0 -15
-7 -15 -15 0 -8 -7 -15 -15 -15 -12 0 -15 -14 -15 -70 0 -56 3 -70 15 -70 10
0 15 -10 15 -30 0 -23 4 -30 20 -30 17 0 20 7 20 51 0 66 24 62 28 -4 2 -37 0
-47 -12 -47 -9 0 -16 -7 -16 -15 0 -8 7 -15 15 -15 10 0 15 -11 15 -35 0 -24
-5 -35 -15 -35 -8 0 -15 -7 -15 -15 0 -8 -9 -15 -20 -15 -18 0 -20 -7 -20 -65
0 -51 3 -65 15 -65 8 0 15 -7 15 -15 0 -9 7 -18 15 -21 13 -5 15 -36 15 -195
0 -161 -2 -189 -15 -189 -8 0 -15 -9 -15 -20 0 -18 7 -20 55 -20 44 0 55 3 55
16 0 9 -9 18 -20 21 -19 5 -20 14 -20 179 l0 174 30 0 c20 0 30 -5 30 -15 0
-10 11 -15 35 -15 24 0 35 -5 35 -15 0 -10 10 -15 30 -15 l30 0 0 -210 c0
-178 2 -212 15 -216 12 -5 15 -29 15 -130 0 -104 -2 -124 -15 -124 -8 0 -15
-7 -15 -15 0 -8 -7 -15 -15 -15 -10 0 -15 -11 -15 -35 l0 -35 100 0 100 0 0
175 0 175 45 0 45 0 0 -125 c0 -104 -2 -125 -15 -125 -8 0 -15 -7 -15 -15 0
-8 -7 -15 -15 -15 -10 0 -15 -11 -15 -35 l0 -35 100 0 100 0 0 175 c0 149 2
175 15 175 12 0 15 16 15 85 l0 85 35 0 35 0 0 80 c0 63 -3 81 -16 88 -14 8
-17 37 -22 196 -4 147 -8 186 -18 186 -8 0 -14 7 -14 15 0 8 -6 15 -14 15 -7
0 -16 9 -19 20 -4 16 -14 20 -51 20 -34 0 -46 4 -46 15 0 8 7 15 15 15 10 0
15 10 15 30 0 19 5 30 14 30 7 0 16 9 19 20 3 11 12 20 21 20 12 0 16 10 16
45 0 33 4 45 15 45 10 0 15 11 15 35 0 32 -2 35 -30 35 -27 0 -30 3 -30 31 0
22 -5 32 -20 36 -14 4 -20 14 -20 34 0 19 -5 29 -15 29 -8 0 -15 9 -15 20 0
19 -7 20 -130 20 -112 0 -130 -2 -130 -16z m120 -139 c0 -11 -11 -15 -40 -15
-29 0 -40 4 -40 15 0 11 11 15 40 15 29 0 40 -4 40 -15z m137 -65 c3 -11 12
-20 19 -20 10 0 14 -13 14 -45 l0 -45 -95 0 c-78 0 -95 3 -95 15 0 8 -7 15
-15 15 -8 0 -15 7 -15 15 0 8 7 15 15 15 8 0 15 7 15 15 0 8 7 15 15 15 8 0
15 6 15 14 0 14 20 19 98 24 16 1 26 -4 29 -18z m-550 -30 c3 -11 12 -20 19
-20 8 0 14 -7 14 -15 0 -8 -7 -15 -15 -15 -8 0 -15 7 -15 15 0 8 -9 15 -20 15
-19 0 -27 20 -13 33 12 13 25 7 30 -13z m-7 -65 c0 -8 -7 -15 -15 -15 -16 0
-20 12 -8 23 11 12 23 8 23 -8z m360 0 c0 -8 -7 -15 -15 -15 -8 0 -15 7 -15
15 0 8 7 15 15 15 8 0 15 -7 15 -15z m30 -40 c0 -12 16 -15 80 -15 l80 0 0
-30 c0 -20 -5 -30 -15 -30 -8 0 -15 -7 -15 -15 0 -10 -10 -15 -30 -15 -20 0
-30 -5 -30 -15 0 -12 -14 -15 -65 -15 -51 0 -65 3 -65 15 0 8 -7 15 -15 15 -8
0 -15 7 -15 15 0 8 -7 15 -15 15 -10 0 -15 10 -15 30 0 29 2 30 45 30 31 0 47
5 51 15 4 8 10 15 15 15 5 0 9 -7 9 -15z m-60 -160 c0 -8 7 -15 15 -15 8 0 15
-7 15 -15 0 -11 12 -15 50 -15 38 0 50 4 50 15 0 10 10 15 30 15 18 0 33 6 36
15 5 11 22 15 70 15 50 0 64 -3 64 -15 0 -8 7 -15 15 -15 13 0 15 -28 15 -195
l0 -195 -35 0 -35 0 0 130 c0 109 -2 130 -15 130 -13 0 -15 -23 -15 -145 l0
-145 -145 0 -145 0 0 180 c0 153 -2 180 -15 180 -10 0 -15 10 -15 30 0 20 5
30 15 30 8 0 15 7 15 15 0 8 7 15 15 15 8 0 15 -7 15 -15z m-260 -60 c0 -8 7
-15 15 -15 11 0 15 -12 15 -50 0 -43 3 -50 20 -50 11 0 20 7 20 15 0 8 7 15
15 15 8 0 15 -7 15 -15 0 -8 7 -15 15 -15 8 0 15 -7 15 -15 0 -8 7 -15 15 -15
12 0 15 14 15 65 0 59 2 65 20 65 20 0 21 -5 18 -97 l-3 -98 -32 -3 c-25 -2
-33 1 -33 12 0 11 -9 16 -29 16 -20 0 -30 6 -34 20 -3 11 -12 20 -21 20 -9 0
-16 7 -16 15 0 11 -12 15 -45 15 l-45 0 0 65 0 65 30 0 c20 0 30 -5 30 -15z
m650 -440 l0 -35 -65 0 -65 0 0 35 0 35 65 0 65 0 0 -35z m-330 -310 l0 -75
-30 0 -30 0 0 75 0 75 30 0 30 0 0 -75z m230 0 l0 -75 -30 0 -30 0 0 75 0 75
30 0 30 0 0 -75z m-222 -147 c3 -26 1 -28 -32 -28 -33 0 -36 2 -36 31 0 28 2
30 33 27 27 -2 33 -8 35 -30z m222 2 c0 -27 -3 -30 -30 -30 -27 0 -30 3 -30
30 0 27 3 30 30 30 27 0 30 -3 30 -30z"/>
<path d="M11667 1344 c-21 -21 -5 -34 44 -34 43 0 50 3 47 18 -2 12 -14 18
-43 20 -23 2 -44 0 -48 -4z"/>
<path d="M2150 1160 c0 -16 7 -20 30 -20 20 0 30 -5 30 -15 0 -8 9 -15 20 -15
13 0 20 7 20 20 0 11 -7 20 -15 20 -8 0 -15 7 -15 15 0 10 -11 15 -35 15 -28
0 -35 -4 -35 -20z"/>
<path d="M2110 1065 c0 -12 13 -15 55 -15 42 0 55 3 55 15 0 12 -13 15 -55 15
-42 0 -55 -3 -55 -15z"/>
<path d="M2210 1005 c0 -10 -10 -15 -30 -15 -23 0 -30 -4 -30 -20 0 -16 7 -20
35 -20 24 0 35 5 35 15 0 8 7 15 15 15 8 0 15 9 15 20 0 13 -7 20 -20 20 -11
0 -20 -7 -20 -15z"/>
<path d="M2380 905 c0 -8 -9 -15 -20 -15 -15 0 -20 -7 -20 -29 0 -16 -6 -31
-15 -35 -9 -3 -15 -18 -15 -36 0 -19 -5 -30 -14 -30 -9 0 -16 -12 -18 -32 -3
-32 -5 -33 -50 -36 -34 -2 -48 -7 -48 -18 0 -7 7 -14 15 -14 8 0 15 -9 15 -20
0 -11 7 -20 15 -20 8 0 15 -7 15 -15 0 -11 11 -15 40 -15 30 0 40 4 40 16 0 9
-9 18 -20 21 -11 3 -20 10 -20 15 0 5 9 12 20 15 14 4 20 14 20 34 0 19 5 29
15 29 10 0 15 10 15 29 0 16 6 31 15 35 9 3 15 18 15 36 0 20 5 30 15 30 10 0
15 11 15 35 0 24 -5 35 -15 35 -8 0 -15 -7 -15 -15z"/>
</g>
</svg>
